<svg width="62" height="62" viewBox="0 0 62 62" fill="none" xmlns="http://www.w3.org/2000/svg">
<mask id="mask0_237_347" style="mask-type:luminance" maskUnits="userSpaceOnUse" x="4" y="1" width="54" height="60">
<path d="M4.67773 1.5896H57.3157V60.3966H4.67773V1.5896Z" fill="white"/>
</mask>
<g mask="url(#mask0_237_347)">
<path d="M57.3077 1.5896H4.68555L9.3286 54.2065L30.9966 60.3966L52.6647 54.2065L57.3077 1.5896Z" fill="#0277BD"/>
</g>
<path d="M30.9971 6.23315V55.6L48.3314 50.6478L52.2007 6.23315H30.9971Z" fill="#039BE5"/>
<path d="M45.0812 13.9707H30.9971V20.1609H38.5809L38.1166 26.351H30.9971V32.5413H37.8071L37.3427 39.5053L30.9971 41.6718V48.1716L43.224 44.1479L44.3074 26.351L45.0812 13.9707Z" fill="white"/>
<path d="M30.9968 13.9707V20.1609H17.2222L16.7578 13.9707H30.9968ZM23.8773 26.351L24.1868 32.5413H30.9968V26.351H23.8773ZM24.4963 35.6363H18.3056L18.7699 44.1479L30.9968 48.1716V41.6718L24.6512 39.5053L24.4963 35.6363Z" fill="#EEEEEE"/>
</svg>
