<svg width="62" height="62" viewBox="0 0 62 62" fill="none" xmlns="http://www.w3.org/2000/svg">
<path d="M61.356 47.6818C59.1472 48.2437 57.7813 47.706 56.5558 45.8654C53.8046 41.7434 50.7675 37.8103 47.8371 33.8045C47.4593 33.2862 47.0669 32.7776 46.5777 32.1334C43.1096 36.8124 39.6463 41.2687 36.3961 45.9042C35.2336 47.5607 34.013 48.2824 31.843 47.6964L44.8824 30.1959L32.7439 14.3907C34.8316 13.9839 36.275 14.1921 37.5538 16.0618C40.3777 20.1887 43.4922 24.117 46.5971 28.2729C49.7213 24.1315 52.7971 20.1984 55.7033 16.1103C56.8707 14.4537 58.1252 13.824 60.2225 14.4343C58.6338 16.5414 57.0789 18.6145 55.5144 20.6731C53.4025 23.4485 51.3294 26.2579 49.14 28.9753C48.3602 29.944 48.4861 30.5737 49.1836 31.4892C53.233 36.8124 57.2339 42.189 61.356 47.6818ZM0.644414 29.9053C0.993164 28.1567 1.22566 26.3742 1.71004 24.6595C4.61629 14.2793 16.5319 9.96354 24.7178 16.396C29.5132 20.1693 30.7047 25.4878 30.4674 31.4843H3.43926C3.03238 42.2423 10.7775 48.7378 20.6491 45.4246C24.1124 44.2621 26.1516 41.5496 27.1736 38.159C27.6919 36.4589 28.5493 36.1924 30.1477 36.6768C29.3291 40.9199 27.4739 44.4656 23.5989 46.684C17.7864 50.0068 9.4891 48.9315 5.12488 44.3154C2.54801 41.6029 1.45332 38.2268 0.968945 34.5795C0.896289 33.9982 0.746133 33.4267 0.629883 32.8503C0.63957 31.8686 0.644414 30.8869 0.644414 29.9053ZM3.48769 29.1835H27.9147C27.7549 21.4045 22.9111 15.8778 16.2897 15.8293C9.0241 15.7712 3.80254 21.1671 3.48769 29.1835Z" fill="black"/>
</svg>
