<svg width="63" height="63" viewBox="0 0 63 63" fill="none" xmlns="http://www.w3.org/2000/svg">
<path d="M21.9465 2.07208C15.6518 4.25576 10.2233 8.40046 6.45831 13.8974C2.69331 19.3943 0.790284 25.9537 1.02875 32.6121C1.26722 39.2706 3.63462 45.677 7.78321 50.8905C11.9318 56.104 17.6429 59.8498 24.0777 61.5775C29.2945 62.9237 34.7602 62.9828 40.0049 61.7498C44.7561 60.6826 49.1486 58.3998 52.7525 55.125C56.5034 51.6125 59.226 47.144 60.6275 42.2001C62.1504 36.8237 62.4215 31.1699 61.42 25.6725H32.1249V37.8246H49.0907C48.7516 39.7628 48.025 41.6126 46.9543 43.2634C45.8837 44.9142 44.491 46.3321 42.8596 47.4321C40.7881 48.803 38.4527 49.7251 36.0034 50.1391C33.5471 50.596 31.0276 50.596 28.5714 50.1391C26.0816 49.6249 23.7265 48.5974 21.6561 47.122C18.3297 44.7673 15.832 41.4221 14.5194 37.5637C13.185 33.633 13.185 29.3718 14.5194 25.4411C15.4537 22.686 16.9982 20.1774 19.0377 18.1026C21.3716 15.6847 24.3264 13.9564 27.5779 13.1073C30.8294 12.2582 34.252 12.321 37.4701 13.289C39.9842 14.0604 42.2832 15.4088 44.1835 17.2265C46.0965 15.3234 48.0062 13.4154 49.9126 11.5024C50.897 10.4737 51.97 9.49426 52.9396 8.44098C50.0383 5.74142 46.633 3.6407 42.9186 2.25911C36.1545 -0.196957 28.7534 -0.262962 21.9465 2.07208Z" fill="white"/>
<path d="M21.9466 2.07203C28.7529 -0.264598 36.154 -0.200331 42.9187 2.25414C46.6337 3.64511 50.0375 5.75595 52.9347 8.46554C51.9504 9.51882 50.9118 10.5032 49.9078 11.5269C47.9981 13.4334 46.09 15.3332 44.1836 17.2265C42.2833 15.4087 39.9843 14.0604 37.4702 13.289C34.2531 12.3176 30.8307 12.2511 27.5783 13.0967C24.3259 13.9424 21.3693 15.6675 19.0329 18.0829C16.9934 20.1576 15.4489 22.6662 14.5146 25.4214L4.31152 17.5218C7.9636 10.2796 14.2869 4.7398 21.9466 2.07203Z" fill="#E33629"/>
<path d="M1.60444 25.3478C2.15244 22.6298 3.06292 19.9976 4.31147 17.522L14.5145 25.4413C13.1801 29.372 13.1801 33.6331 14.5145 37.5639C11.1151 40.1889 7.71413 42.827 4.31147 45.4782C1.18682 39.2585 0.233858 32.1719 1.60444 25.3478Z" fill="#F8BD00"/>
<path d="M32.1252 25.6675H61.4202C62.4218 31.1649 62.1507 36.8187 60.6278 42.1951C59.2262 47.1391 56.5037 51.6075 52.7528 55.12C49.4601 52.5508 46.1526 50.0012 42.8598 47.432C44.4923 46.3309 45.8857 44.9115 46.9564 43.2589C48.0271 41.6063 48.7531 39.7546 49.0909 37.8147H32.1252C32.1203 33.7689 32.1252 29.7182 32.1252 25.6675Z" fill="#587DBD"/>
<path d="M4.30664 45.4781C7.7093 42.8531 11.1103 40.215 14.5097 37.5637C15.8248 41.4234 18.3261 44.7688 21.6562 47.122C23.733 48.5905 26.0933 49.6097 28.5863 50.1145C31.0425 50.5713 33.562 50.5713 36.0183 50.1145C38.4675 49.7005 40.803 48.7784 42.8745 47.4075C46.1672 49.9767 49.4747 52.5262 52.7674 55.0954C49.1641 58.3721 44.7714 60.6566 40.0198 61.7252C34.7751 62.9582 29.3094 62.899 24.0926 61.5529C19.9666 60.4513 16.1126 58.5092 12.7723 55.8485C9.23702 53.0411 6.34939 49.5038 4.30664 45.4781Z" fill="#319F43"/>
</svg>
