<svg width="61" height="61" viewBox="0 0 61 61" fill="none" xmlns="http://www.w3.org/2000/svg">
<mask id="mask0_237_357" style="mask-type:luminance" maskUnits="userSpaceOnUse" x="1" y="1" width="59" height="59">
<path d="M1.86816 1.86792H59.1472V59.1469H1.86816V1.86792Z" fill="white"/>
</mask>
<g mask="url(#mask0_237_357)">
<path d="M1.86816 1.86792H59.1472V59.1469H1.86816V1.86792Z" fill="#FFD600"/>
</g>
<path d="M39.3192 44.7425C40.4202 46.5309 41.6167 48.2445 44.1513 48.2445C46.2802 48.2445 47.3971 47.1865 47.3971 45.7226C47.3971 43.9708 46.2419 43.3487 43.8999 42.3289L42.6159 41.7815C38.9102 40.2096 36.4457 38.2398 36.4457 34.0791C36.4457 30.2445 39.3812 27.3265 43.9683 27.3265C47.2348 27.3265 49.5817 28.4577 51.2746 31.4204L47.2746 33.9773C46.3948 32.4053 45.4432 31.7864 43.9683 31.7864C42.4631 31.7864 41.5101 32.7362 41.5101 33.9773C41.5101 35.511 42.4647 36.1317 44.6683 37.0815L45.9523 37.6289C50.3199 39.4887 52.7829 41.3885 52.7829 45.6589C52.7829 50.2605 49.1488 52.7823 44.2706 52.7823C39.4989 52.7823 36.7893 50.3877 35.281 47.4235L39.3192 44.7425ZM20.8848 44.8729C21.6899 46.3145 22.9136 47.4235 24.6732 47.4235C26.3566 47.4235 27.3256 46.7584 27.3256 44.1729V27.325H32.6286V44.9876C32.6286 50.3447 29.5213 52.7823 24.9834 52.7823C20.8832 52.7823 17.9238 50.0042 16.7178 47.4235L20.8848 44.8729Z" fill="#000001"/>
</svg>
