<svg width="59" height="59" viewBox="0 0 59 59" fill="none" xmlns="http://www.w3.org/2000/svg">
<path d="M16.5938 25.2593C18.3146 18.376 22.6167 14.9343 29.5 14.9343C39.825 14.9343 41.1156 22.6781 46.2781 23.9687C49.7198 24.8291 52.7313 23.5385 55.3125 20.0968C53.5917 26.9802 49.2896 30.4218 42.4062 30.4218C32.0812 30.4218 30.7906 22.6781 25.6281 21.3875C22.1865 20.527 19.175 21.8177 16.5938 25.2593ZM3.6875 40.7468C5.40833 33.8635 9.71042 30.4218 16.5938 30.4218C26.9188 30.4218 28.2094 38.1656 33.3719 39.4562C36.8135 40.3166 39.825 39.026 42.4062 35.5843C40.6854 42.4677 36.3833 45.9093 29.5 45.9093C19.175 45.9093 17.8844 38.1656 12.7219 36.875C9.28021 36.0145 6.26875 37.3052 3.6875 40.7468Z" fill="#44A8B3"/>
</svg>
