<svg width="62" height="62" viewBox="0 0 62 62" fill="none" xmlns="http://www.w3.org/2000/svg">
<path d="M0.96875 30.9563V61.2297H61.5156V0.682861H0.96875V30.9563ZM49.7598 28.5344C51.21 28.871 52.528 29.6294 53.5477 30.7141C54.109 31.2985 54.597 31.9491 55.0008 32.6516C55.0008 32.7291 52.3852 34.4971 50.7916 35.4852C50.7334 35.524 50.5009 35.2721 50.2442 34.8894C49.9533 34.3874 49.54 33.9674 49.0428 33.6684C48.5456 33.3694 47.9807 33.2012 47.4009 33.1796C45.5652 33.0536 44.3833 34.0175 44.393 35.6015C44.3778 35.9958 44.4681 36.3871 44.6545 36.7349C45.0566 37.5729 45.8073 38.0718 48.1614 39.089C52.4966 40.9538 54.3517 42.1841 55.5045 43.9327C56.793 45.8702 57.0788 48.9993 56.2069 51.3146C55.2381 53.8333 52.8647 55.5432 49.508 56.1099C47.9748 56.2855 46.4258 56.2692 44.8967 56.0615C42.5631 55.6829 40.4104 54.5718 38.75 52.8888C38.193 52.2736 37.108 50.6704 37.1758 50.5541C37.3526 50.4228 37.5388 50.3047 37.7328 50.2005L39.9609 48.9218L41.6998 47.9143L42.0631 48.4519C42.6762 49.3289 43.4565 50.0762 44.3591 50.651C46.2966 51.6682 48.9412 51.5277 50.2491 50.3507C50.6882 49.9194 50.9621 49.3477 51.0232 48.7353C51.0842 48.1228 50.9286 47.5083 50.5833 46.9988C50.0989 46.3255 49.1302 45.7588 46.4225 44.5769C43.2983 43.2304 41.9517 42.3972 40.7214 41.07C39.9534 40.1942 39.3863 39.161 39.06 38.0427C38.8166 36.7651 38.7806 35.4567 38.9534 34.1677C39.5977 31.15 41.8597 29.043 45.1631 28.4182C46.693 28.2289 48.2426 28.2713 49.7598 28.5441V28.5344ZM35.5483 31.0725V33.5525H27.6869V55.9452H22.1117V33.5477H14.2309V31.1258C14.2098 30.2921 14.2324 29.4578 14.2987 28.6265C14.3278 28.5877 19.1425 28.5683 24.955 28.578H35.5192L35.5483 31.0725Z" fill="#007ACC"/>
</svg>
