<svg width="61" height="61" viewBox="0 0 61 61" fill="none" xmlns="http://www.w3.org/2000/svg">
<g clip-path="url(#clip0_239_411)">
<path d="M58.8424 6.94295L42.3161 9.95514L45.1878 0L22.2543 4.49375L21.897 10.5271L1.80441 6.93564C0.420469 6.85514 -0.385835 7.84883 0.185661 9.22864L29.2626 60.2188C29.8884 61.2404 31.3294 61.2802 31.9612 60.2188L60.4728 9.22372C61.1162 8.07091 60.1303 6.7196 58.8424 6.94295ZM30.6061 58.821L2.12889 8.88259L21.7864 12.3963L20.8597 28.0471L28.9173 26.1876L26.6706 37.1895L32.7913 35.3299L29.7538 50.0315C29.6024 50.9929 30.8548 51.5044 31.4742 50.1284L49.3716 14.4109L40.5391 16.1156L41.7406 11.9501L58.5288 8.8902L30.6061 58.821Z" fill="#FDD835"/>
</g>
<defs>
<clipPath id="clip0_239_411">
<rect width="61" height="61" fill="white"/>
</clipPath>
</defs>
</svg>
