<svg width="61" height="61" viewBox="0 0 61 61" fill="none" xmlns="http://www.w3.org/2000/svg">
<path d="M43.2078 41.8613V18.783L27.9578 30.3222M5.64201 23.358C4.87951 22.5447 4.85409 21.2738 5.59118 20.4351L8.64118 17.6138C9.14951 17.1563 10.3949 16.953 11.3099 17.6138L20.0024 24.2476L40.1578 5.82049C40.9712 5.00716 42.3691 4.67674 43.9703 5.51549L54.137 10.3701C55.052 10.9038 55.9162 11.7426 55.9162 13.293V47.6055C55.9162 48.6222 55.1791 49.7151 54.3912 50.1472L43.2078 55.4847C42.3945 55.8151 40.8695 55.5101 40.3358 54.9763L19.9516 36.4222L11.3099 43.0305C10.3441 43.6913 9.14951 43.5134 8.64118 43.0305L5.59118 40.2347C4.77784 39.3959 4.87951 38.0234 5.71826 37.1847L13.3433 30.3222" fill="#4FC3F7"/>
</svg>
